<svg height="512" viewBox="0 0 43 60" width="512" xmlns="http://www.w3.org/2000/svg"><g id="Page-1" fill="none" fill-rule="evenodd"><g id="028---Trash-Hearts" fill-rule="nonzero" transform="translate(-1 -1)"><path id="Shape" d="m42 20.12-.72 6c-.0610234.5049651-.4913743.8836739-1 .88h-36.6c-.48948063-.0210105-.89165896-.3935547-.95-.88l-.72-6c-.03427782-.2835751.05434686-.5682732.24352154-.782289.18917469-.2140158.46084023-.3369188.74647846-.337711h38c.2873798-.0020776.5617624.1195851.7531669.3339581s.2813271.5007322.2468331.7860419z" fill="#9e9e9e"/><path id="Shape" d="m41 19h-3c.2873798-.0020776.5617624.1195851.7531669.3339581s.2813271.5007322.2468331.7860419l-.72 6c-.0610234.5049651-.4913743.8836739-1 .8800265l3-.0000265c.5086257.0036739.9389766-.3750349 1-.88l.72-6c.034494-.2853097-.0554286-.5716689-.2468331-.7860419s-.4657871-.3360357-.7531669-.3339581z" fill="#707070"/><path id="Shape" d="m39 27-.05.45-1.1 9.9-.16 1.46-.94 8.44-.75 6.75h-28l-.75-6.75-.94-8.44-.16-1.46-1.1-9.9-.05-.45z" fill="#7f8e94"/><path id="Shape" d="m36 27-.05.45-1.1 9.9-.16 1.46-.94 8.44-.75 6.75h3l.75-6.75.94-8.44.16-1.46 1.1-9.9.05-.45z" fill="#545c60"/><path id="Shape" d="m8 54h28v4c0 1.1045695-.8954305 2-2 2h-24c-1.1045695 0-2-.8954305-2-2z" fill="#607d8b"/><path id="Shape" d="m33 54v4c0 1.1045695-.8954305 2-2 2h3c1.1045695 0 2-.8954305 2-2v-4z" fill="#37474f"/><path id="Shape" d="m27.93 6.76c-2.13 2.12-2.47 6-1.15 12.1.00948.0505054.029965.0983038.06.14h-19.68c-2.75-2.89-4.27-5.55-4.15-8.89.18-4.91 4.34-8.81 9-8 2.4302923.45909018 4.5821345 1.85653029 5.99 3.89 1.4027358-2.05074091 3.5595965-3.46348464 6-3.93 2.84577-.45077475 5.6963443.77980108 7.32 3.16-1.2876634.04250897-2.5062706.59249984-3.39 1.53z" fill="#ef314c"/><path id="Shape" d="m39.24 18.07c-.3624784.3725715-.7808374.6863408-1.24.93h-11.16c-.030035-.0416962-.05052-.0894946-.06-.14-1.32-6.1-1-10 1.15-12.1.8903581-.92275651 2.108129-1.45800094 3.39-1.49 1.0049009-.0189725 1.9736106.37501764 2.68 1.09 1.1096839 1.14411377 1.6074125 2.74873134 1.34 4.32 1.561504-.2659554 3.1566696.2237233 4.3 1.32 1.67 1.7 1.36 4.33-.4 6.07z" fill="#e91e63"/><path id="Shape" d="m39.64 12c-1.1441138-1.1096839-2.7487313-1.6074125-4.32-1.34.2659554-1.561504-.2237233-3.15666958-1.32-4.3-.6991412-.70740797-1.6554606-1.10076198-2.65-1.09-.5201785.01157206-1.0344317.1130694-1.52.3.4383167.183534.8359612.45202899 1.17.79 1.1096839 1.14411377 1.6074125 2.74873134 1.34 4.32 1.561504-.2659554 3.1566696.2237233 4.3 1.32 1.67 1.68 1.34 4.31-.4 6.05-.3610092.3796758-.7794479.7002538-1.24.95h3c.462702-.2427796.8844881-.5565885 1.25-.93 1.75-1.74 2.06-4.37.39-6.07z" fill="#ad1457"/><path id="Shape" d="m7 12c-.55228475 0-1-.4477153-1-1-.15625729-1.83695806.5406572-3.6437734 1.89-4.9 1.23592628-.90808925 2.7902043-1.26954926 4.3-1 .3572656.06788045.6511788.32120351.7710254.66454482.1198466.34334132.047419.72453917-.19 1.00000002s-.6037598.40333563-.9610254.33545516c-.93357-.14750966-1.88786093.07491907-2.66.62-.84595215.87168411-1.26640978 2.07090241-1.15 3.28 0 .5522847-.44771525 1-1 1z" fill="#f5f5f5"/><path id="Shape" d="m18 4.42c-1.5168778-1.72438594-3.5708285-2.88699956-5.83-3.3-2.3641563-.40895876-4.78857263.24194035-6.63 1.78-2.16339691 1.76398201-3.45493581 4.37989555-3.54 7.17-.04546096 2.9287667 1.02739684 5.7646875 3 7.93h-2c-.55553822.0022395-1.08346086.2425353-1.45.66-.39747533.4258216-.59714109.9994069-.55 1.58l.72 6c.12016656.9948392.95801153 1.7471898 1.96 1.76h.42l2.9 26.06v3.94c0 1.6568542 1.34314575 3 3 3h24c1.6568542 0 3-1.3431458 3-3v-3.94l2.9-26.06h.42c1.0172513.0073478 1.8779532-.7500699 2-1.76l.72-6c.0606264-.5733145-.120584-1.1459394-.5-1.58-.3869743-.4417547-.9532298-.6844356-1.54-.66h-.4c1.5837303-1.9845866 1.4774312-4.8291489-.25-6.69-1.0655447-1.0593191-2.4978279-1.66803952-4-1.7-.0319605-1.50217209-.6406809-2.93445534-1.7-4-.7697554-.76229615-1.7810519-1.23258441-2.86-1.33-1.8789706-2.45182624-4.9484515-3.67961856-8-3.2-2.2500911.43213316-4.2894335 1.60854138-5.79 3.34zm3.91 48.58-4-4 4.09-4.09 4.09 4.09-4 4zm-5.41-16.41-4.09-4.09 4.09-4.09 4.09 4.09zm5.5-2.68 4.09 4.09-4.09 4.09-4.09-4.09zm-6.91 4.09-4.09 4.09-3.73-3.74-.07-.63 3.8-3.81zm1.41 1.41 4.09 4.09-4.09 4.09-4.09-4.09zm6.91 4.09 4.09-4.09 4.09 4.09-4.09 4.09zm5.5-5.5 4.09-4.09 3.8 3.81-.07.63-3.73 3.74zm-1.41-1.41-4.09-4.09 4.09-4.09 4.09 4.09zm2.41-8.59h6.18l-3.09 3.09zm-7.91 3.09-3.09-3.09h6.18zm-11 0-3.09-3.09h6.18zm-1.41 1.41-2.68 2.67-.66-6zm0 11-1.59 1.57-.39-3.53zm-1.29 4.12 2.7-2.71 4.09 4.09-4 4h-2.19zm8.2 2.79 2.59 2.59h-5.18zm11 0 2.59 2.59h-5.18zm5.41 2.59-4-4 4.09-4.09 2.7 2.71-.6 5.38zm1.5-9.5 2-2-.41 3.57zm0-11 3.34-3.34-.66 6zm.59 25.5c0 .5522847-.4477153 1-1 1h-24c-.55228475 0-1-.4477153-1-1v-3h26zm5.28-32h-36.56l-.72-6h38zm-5.94-15.54c-.0779458.3362293.023004.6888861.267059.932941.2440549.244055.5967117.3450048.932941.267059 1.2364195-.2107057 2.4985784.1876748 3.39 1.07 1.21 1.21 1 3.2-.41 4.64-.2410736.2447593-.5134306.4565925-.81.63h-10.08c-1.07-5.32-.75-8.79 1-10.53.7047071-.73713995 1.6707024-1.16806721 2.69-1.2.7291989-.01164231 1.4309646.27774561 1.94.8.8816061.89214702 1.2830685 2.15229293 1.08 3.39zm-15.49-3.89c1.258311-1.80066584 3.164895-3.04424599 5.32-3.47 1.8838882-.31097389 3.8065835.25625806 5.22 1.54-.8132443.31451292-1.5522151.79467366-2.17 1.41-2.22 2.24-2.75 6.07-1.62 11.95h-18c-2.6-2.85-3.69-5.15-3.6-7.85.06360326-2.21143476 1.07655402-4.28834819 2.78-5.7 1.39365088-1.15066196 3.21659876-1.64285788 5-1.35 2.155105.42575401 4.061689 1.66933416 5.32 3.47.2020019.29339884.5448265.45719281.9.43.3377872.00948943.6575186-.15225707.85-.43z" fill="#000"/></g></g></svg>